<svg xmlns="http://www.w3.org/2000/svg" viewBox="0 0 64 64">
  <defs>
    <linearGradient id="g" x1="0" y1="0" x2="1" y2="1">
      <stop offset="0" stop-color="#FFD166"/>
      <stop offset="1" stop-color="#FF9F1C"/>
    </linearGradient>
    <filter id="s" x="-20%" y="-20%" width="140%" height="140%">
      <feDropShadow dx="0" dy="4" stdDeviation="4" flood-color="rgba(0,0,0,0.35)"/>
    </filter>
  </defs>
  <rect rx="14" ry="14" width="64" height="64" fill="#0f1221"/>
  <g filter="url(#s)">
    <path fill="url(#g)" d="M32 8l6.9 14a2 2 0 0 0 1.5 1.1l15.5 2.2-11.2 10.9a2 2 0 0 0-.6 1.8l2.6 15.3L32.8 46a2 2 0 0 0-1.7 0L17.3 53.3l2.6-15.3a2 2 0 0 0-.6-1.8L8 25.3l15.5-2.2a2 2 0 0 0 1.5-1.1L32 8z"/>
  </g>
</svg>